<mxfile host="Electron" modified="2023-11-20T18:56:00.018Z" agent="Mozilla/5.0 (X11; Linux x86_64) AppleWebKit/537.36 (KHTML, like Gecko) draw.io/22.1.2 Chrome/114.0.5735.289 Electron/25.9.4 Safari/537.36" etag="i325CLcMyuImg-hGutjo" version="22.1.2" type="device">
  <diagram name="Page-1" id="7iPh9apBC6F9L2sK3I15">
    <mxGraphModel dx="662" dy="998" grid="1" gridSize="10" guides="1" tooltips="1" connect="1" arrows="1" fold="1" page="1" pageScale="1" pageWidth="850" pageHeight="1100" math="0" shadow="0">
      <root>
        <mxCell id="0" />
        <mxCell id="1" parent="0" />
        <mxCell id="TLS6ExPTuI5c0WABD6ZB-22" style="edgeStyle=orthogonalEdgeStyle;shape=connector;curved=1;rounded=0;orthogonalLoop=1;jettySize=auto;html=1;exitX=1;exitY=0.5;exitDx=0;exitDy=0;entryX=0;entryY=0.5;entryDx=0;entryDy=0;labelBackgroundColor=default;strokeColor=default;align=center;verticalAlign=middle;fontFamily=Helvetica;fontSize=11;fontColor=default;endArrow=classic;" edge="1" parent="1" source="TLS6ExPTuI5c0WABD6ZB-1" target="TLS6ExPTuI5c0WABD6ZB-2">
          <mxGeometry relative="1" as="geometry" />
        </mxCell>
        <mxCell id="TLS6ExPTuI5c0WABD6ZB-36" style="shape=connector;rounded=0;orthogonalLoop=1;jettySize=auto;html=1;exitX=1;exitY=1;exitDx=0;exitDy=0;labelBackgroundColor=default;strokeColor=default;align=center;verticalAlign=middle;fontFamily=Helvetica;fontSize=11;fontColor=default;endArrow=classic;" edge="1" parent="1" source="TLS6ExPTuI5c0WABD6ZB-1">
          <mxGeometry relative="1" as="geometry">
            <mxPoint x="310" y="550" as="targetPoint" />
          </mxGeometry>
        </mxCell>
        <mxCell id="TLS6ExPTuI5c0WABD6ZB-1" value="00" style="ellipse;whiteSpace=wrap;html=1;" vertex="1" parent="1">
          <mxGeometry x="240" y="400" width="80" height="80" as="geometry" />
        </mxCell>
        <mxCell id="TLS6ExPTuI5c0WABD6ZB-24" style="edgeStyle=orthogonalEdgeStyle;shape=connector;curved=1;rounded=0;orthogonalLoop=1;jettySize=auto;html=1;exitX=0.5;exitY=1;exitDx=0;exitDy=0;labelBackgroundColor=default;strokeColor=default;align=center;verticalAlign=middle;fontFamily=Helvetica;fontSize=11;fontColor=default;endArrow=classic;" edge="1" parent="1" source="TLS6ExPTuI5c0WABD6ZB-2" target="TLS6ExPTuI5c0WABD6ZB-16">
          <mxGeometry relative="1" as="geometry" />
        </mxCell>
        <mxCell id="TLS6ExPTuI5c0WABD6ZB-39" style="shape=connector;rounded=0;orthogonalLoop=1;jettySize=auto;html=1;exitX=0;exitY=1;exitDx=0;exitDy=0;labelBackgroundColor=default;strokeColor=default;align=center;verticalAlign=middle;fontFamily=Helvetica;fontSize=11;fontColor=default;endArrow=classic;" edge="1" parent="1" source="TLS6ExPTuI5c0WABD6ZB-2">
          <mxGeometry relative="1" as="geometry">
            <mxPoint x="320" y="560" as="targetPoint" />
          </mxGeometry>
        </mxCell>
        <mxCell id="TLS6ExPTuI5c0WABD6ZB-2" value="01" style="ellipse;whiteSpace=wrap;html=1;" vertex="1" parent="1">
          <mxGeometry x="400" y="400" width="80" height="80" as="geometry" />
        </mxCell>
        <mxCell id="TLS6ExPTuI5c0WABD6ZB-26" style="edgeStyle=orthogonalEdgeStyle;shape=connector;curved=1;rounded=0;orthogonalLoop=1;jettySize=auto;html=1;exitX=0.5;exitY=0;exitDx=0;exitDy=0;entryX=0.5;entryY=1;entryDx=0;entryDy=0;labelBackgroundColor=default;strokeColor=default;align=center;verticalAlign=middle;fontFamily=Helvetica;fontSize=11;fontColor=default;endArrow=classic;" edge="1" parent="1" source="TLS6ExPTuI5c0WABD6ZB-15" target="TLS6ExPTuI5c0WABD6ZB-1">
          <mxGeometry relative="1" as="geometry" />
        </mxCell>
        <mxCell id="TLS6ExPTuI5c0WABD6ZB-15" value="11" style="ellipse;whiteSpace=wrap;html=1;" vertex="1" parent="1">
          <mxGeometry x="240" y="560" width="80" height="80" as="geometry" />
        </mxCell>
        <mxCell id="TLS6ExPTuI5c0WABD6ZB-25" style="edgeStyle=orthogonalEdgeStyle;shape=connector;curved=1;rounded=0;orthogonalLoop=1;jettySize=auto;html=1;exitX=0;exitY=0.5;exitDx=0;exitDy=0;entryX=1;entryY=0.5;entryDx=0;entryDy=0;labelBackgroundColor=default;strokeColor=default;align=center;verticalAlign=middle;fontFamily=Helvetica;fontSize=11;fontColor=default;endArrow=classic;" edge="1" parent="1" source="TLS6ExPTuI5c0WABD6ZB-16" target="TLS6ExPTuI5c0WABD6ZB-15">
          <mxGeometry relative="1" as="geometry" />
        </mxCell>
        <mxCell id="TLS6ExPTuI5c0WABD6ZB-40" style="edgeStyle=orthogonalEdgeStyle;shape=connector;curved=1;rounded=0;orthogonalLoop=1;jettySize=auto;html=1;exitX=0;exitY=0;exitDx=0;exitDy=0;labelBackgroundColor=default;strokeColor=default;align=center;verticalAlign=middle;fontFamily=Helvetica;fontSize=11;fontColor=default;endArrow=classic;" edge="1" parent="1" source="TLS6ExPTuI5c0WABD6ZB-16">
          <mxGeometry relative="1" as="geometry">
            <mxPoint x="320" y="570" as="targetPoint" />
          </mxGeometry>
        </mxCell>
        <mxCell id="TLS6ExPTuI5c0WABD6ZB-16" value="10" style="ellipse;whiteSpace=wrap;html=1;" vertex="1" parent="1">
          <mxGeometry x="400" y="560" width="80" height="80" as="geometry" />
        </mxCell>
        <mxCell id="TLS6ExPTuI5c0WABD6ZB-17" style="edgeStyle=orthogonalEdgeStyle;shape=connector;curved=1;rounded=0;orthogonalLoop=1;jettySize=auto;html=1;exitX=0;exitY=0.5;exitDx=0;exitDy=0;entryX=0.5;entryY=0;entryDx=0;entryDy=0;labelBackgroundColor=default;strokeColor=default;align=center;verticalAlign=middle;fontFamily=Helvetica;fontSize=11;fontColor=default;endArrow=classic;" edge="1" parent="1" source="TLS6ExPTuI5c0WABD6ZB-1" target="TLS6ExPTuI5c0WABD6ZB-1">
          <mxGeometry relative="1" as="geometry">
            <Array as="points">
              <mxPoint x="210" y="440" />
              <mxPoint x="210" y="380" />
              <mxPoint x="280" y="380" />
            </Array>
          </mxGeometry>
        </mxCell>
        <mxCell id="TLS6ExPTuI5c0WABD6ZB-19" style="edgeStyle=orthogonalEdgeStyle;shape=connector;curved=1;rounded=0;orthogonalLoop=1;jettySize=auto;html=1;exitX=0.5;exitY=0;exitDx=0;exitDy=0;entryX=1;entryY=0.5;entryDx=0;entryDy=0;labelBackgroundColor=default;strokeColor=default;align=center;verticalAlign=middle;fontFamily=Helvetica;fontSize=11;fontColor=default;endArrow=classic;" edge="1" parent="1" source="TLS6ExPTuI5c0WABD6ZB-2" target="TLS6ExPTuI5c0WABD6ZB-2">
          <mxGeometry relative="1" as="geometry" />
        </mxCell>
        <mxCell id="TLS6ExPTuI5c0WABD6ZB-20" style="edgeStyle=orthogonalEdgeStyle;shape=connector;curved=1;rounded=0;orthogonalLoop=1;jettySize=auto;html=1;exitX=1;exitY=0.5;exitDx=0;exitDy=0;entryX=0.5;entryY=1;entryDx=0;entryDy=0;labelBackgroundColor=default;strokeColor=default;align=center;verticalAlign=middle;fontFamily=Helvetica;fontSize=11;fontColor=default;endArrow=classic;" edge="1" parent="1" source="TLS6ExPTuI5c0WABD6ZB-16" target="TLS6ExPTuI5c0WABD6ZB-16">
          <mxGeometry relative="1" as="geometry" />
        </mxCell>
        <mxCell id="TLS6ExPTuI5c0WABD6ZB-21" style="edgeStyle=orthogonalEdgeStyle;shape=connector;curved=1;rounded=0;orthogonalLoop=1;jettySize=auto;html=1;exitX=0.5;exitY=1;exitDx=0;exitDy=0;entryX=0;entryY=0.5;entryDx=0;entryDy=0;labelBackgroundColor=default;strokeColor=default;align=center;verticalAlign=middle;fontFamily=Helvetica;fontSize=11;fontColor=default;endArrow=classic;" edge="1" parent="1" source="TLS6ExPTuI5c0WABD6ZB-15" target="TLS6ExPTuI5c0WABD6ZB-15">
          <mxGeometry relative="1" as="geometry">
            <Array as="points">
              <mxPoint x="280" y="660" />
              <mxPoint x="210" y="660" />
              <mxPoint x="210" y="600" />
            </Array>
          </mxGeometry>
        </mxCell>
        <mxCell id="TLS6ExPTuI5c0WABD6ZB-28" value="00/00" style="text;html=1;align=center;verticalAlign=middle;resizable=0;points=[];autosize=1;strokeColor=none;fillColor=none;fontSize=11;fontFamily=Helvetica;fontColor=default;" vertex="1" parent="1">
          <mxGeometry x="210" y="378" width="50" height="30" as="geometry" />
        </mxCell>
        <mxCell id="TLS6ExPTuI5c0WABD6ZB-29" value="01/01" style="text;html=1;align=center;verticalAlign=middle;resizable=0;points=[];autosize=1;strokeColor=none;fillColor=none;fontSize=11;fontFamily=Helvetica;fontColor=default;" vertex="1" parent="1">
          <mxGeometry x="325" y="408" width="50" height="30" as="geometry" />
        </mxCell>
        <mxCell id="TLS6ExPTuI5c0WABD6ZB-30" value="01/01" style="text;html=1;align=center;verticalAlign=middle;resizable=0;points=[];autosize=1;strokeColor=none;fillColor=none;fontSize=11;fontFamily=Helvetica;fontColor=default;" vertex="1" parent="1">
          <mxGeometry x="220" y="510" width="50" height="30" as="geometry" />
        </mxCell>
        <mxCell id="TLS6ExPTuI5c0WABD6ZB-31" value="01/01" style="text;html=1;align=center;verticalAlign=middle;resizable=0;points=[];autosize=1;strokeColor=none;fillColor=none;fontSize=11;fontFamily=Helvetica;fontColor=default;" vertex="1" parent="1">
          <mxGeometry x="450" y="510" width="50" height="30" as="geometry" />
        </mxCell>
        <mxCell id="TLS6ExPTuI5c0WABD6ZB-32" value="01/00" style="text;html=1;align=center;verticalAlign=middle;resizable=0;points=[];autosize=1;strokeColor=none;fillColor=none;fontSize=11;fontFamily=Helvetica;fontColor=default;" vertex="1" parent="1">
          <mxGeometry x="340" y="600" width="50" height="30" as="geometry" />
        </mxCell>
        <mxCell id="TLS6ExPTuI5c0WABD6ZB-33" value="00/00" style="text;html=1;align=center;verticalAlign=middle;resizable=0;points=[];autosize=1;strokeColor=none;fillColor=none;fontSize=11;fontFamily=Helvetica;fontColor=default;" vertex="1" parent="1">
          <mxGeometry x="450" y="378" width="50" height="30" as="geometry" />
        </mxCell>
        <mxCell id="TLS6ExPTuI5c0WABD6ZB-34" value="00/00" style="text;html=1;align=center;verticalAlign=middle;resizable=0;points=[];autosize=1;strokeColor=none;fillColor=none;fontSize=11;fontFamily=Helvetica;fontColor=default;" vertex="1" parent="1">
          <mxGeometry x="450" y="630" width="50" height="30" as="geometry" />
        </mxCell>
        <mxCell id="TLS6ExPTuI5c0WABD6ZB-35" value="00/00" style="text;html=1;align=center;verticalAlign=middle;resizable=0;points=[];autosize=1;strokeColor=none;fillColor=none;fontSize=11;fontFamily=Helvetica;fontColor=default;" vertex="1" parent="1">
          <mxGeometry x="210" y="630" width="50" height="30" as="geometry" />
        </mxCell>
        <mxCell id="TLS6ExPTuI5c0WABD6ZB-37" value="1x/10" style="text;html=1;align=center;verticalAlign=middle;resizable=0;points=[];autosize=1;strokeColor=none;fillColor=none;fontSize=11;fontFamily=Helvetica;fontColor=default;" vertex="1" parent="1">
          <mxGeometry x="310" y="470" width="50" height="30" as="geometry" />
        </mxCell>
        <mxCell id="TLS6ExPTuI5c0WABD6ZB-41" value="1x/10" style="text;html=1;align=center;verticalAlign=middle;resizable=0;points=[];autosize=1;strokeColor=none;fillColor=none;fontSize=11;fontFamily=Helvetica;fontColor=default;" vertex="1" parent="1">
          <mxGeometry x="360" y="500" width="50" height="30" as="geometry" />
        </mxCell>
        <mxCell id="TLS6ExPTuI5c0WABD6ZB-42" value="1x/10" style="text;html=1;align=center;verticalAlign=middle;resizable=0;points=[];autosize=1;strokeColor=none;fillColor=none;fontSize=11;fontFamily=Helvetica;fontColor=default;" vertex="1" parent="1">
          <mxGeometry x="340" y="550" width="50" height="30" as="geometry" />
        </mxCell>
        <mxCell id="TLS6ExPTuI5c0WABD6ZB-45" value="MSb=resetout" style="text;html=1;align=center;verticalAlign=middle;resizable=0;points=[];autosize=1;strokeColor=none;fillColor=none;fontSize=11;fontFamily=Helvetica;fontColor=default;" vertex="1" parent="1">
          <mxGeometry x="205" y="688" width="90" height="30" as="geometry" />
        </mxCell>
        <mxCell id="TLS6ExPTuI5c0WABD6ZB-47" value="LSb=clkout" style="text;html=1;align=center;verticalAlign=middle;resizable=0;points=[];autosize=1;strokeColor=none;fillColor=none;fontSize=11;fontFamily=Helvetica;fontColor=default;" vertex="1" parent="1">
          <mxGeometry x="380" y="688" width="80" height="30" as="geometry" />
        </mxCell>
        <mxCell id="TLS6ExPTuI5c0WABD6ZB-50" style="edgeStyle=orthogonalEdgeStyle;shape=connector;curved=1;rounded=0;orthogonalLoop=1;jettySize=auto;html=1;exitX=1;exitY=0.5;exitDx=0;exitDy=0;entryX=0.64;entryY=1.008;entryDx=0;entryDy=0;labelBackgroundColor=default;strokeColor=default;align=center;verticalAlign=middle;fontFamily=Helvetica;fontSize=11;fontColor=default;endArrow=classic;entryPerimeter=0;" edge="1" parent="1" source="TLS6ExPTuI5c0WABD6ZB-15" target="TLS6ExPTuI5c0WABD6ZB-15">
          <mxGeometry relative="1" as="geometry" />
        </mxCell>
        <mxCell id="TLS6ExPTuI5c0WABD6ZB-51" value="1x/10" style="text;html=1;align=center;verticalAlign=middle;resizable=0;points=[];autosize=1;strokeColor=none;fillColor=none;fontSize=11;fontFamily=Helvetica;fontColor=default;" vertex="1" parent="1">
          <mxGeometry x="295" y="658" width="50" height="30" as="geometry" />
        </mxCell>
        <mxCell id="TLS6ExPTuI5c0WABD6ZB-53" style="edgeStyle=orthogonalEdgeStyle;shape=connector;curved=1;rounded=0;orthogonalLoop=1;jettySize=auto;html=1;exitX=1;exitY=0.5;exitDx=0;exitDy=0;entryX=0;entryY=0.5;entryDx=0;entryDy=0;labelBackgroundColor=default;strokeColor=default;align=center;verticalAlign=middle;fontFamily=Helvetica;fontSize=11;fontColor=default;endArrow=classic;" edge="1" parent="1" source="TLS6ExPTuI5c0WABD6ZB-55" target="TLS6ExPTuI5c0WABD6ZB-58">
          <mxGeometry relative="1" as="geometry" />
        </mxCell>
        <mxCell id="TLS6ExPTuI5c0WABD6ZB-54" style="shape=connector;rounded=0;orthogonalLoop=1;jettySize=auto;html=1;exitX=1;exitY=1;exitDx=0;exitDy=0;labelBackgroundColor=default;strokeColor=default;align=center;verticalAlign=middle;fontFamily=Helvetica;fontSize=11;fontColor=default;endArrow=classic;" edge="1" parent="1" source="TLS6ExPTuI5c0WABD6ZB-55">
          <mxGeometry relative="1" as="geometry">
            <mxPoint x="305" y="912" as="targetPoint" />
          </mxGeometry>
        </mxCell>
        <mxCell id="TLS6ExPTuI5c0WABD6ZB-55" value="00/0" style="ellipse;whiteSpace=wrap;html=1;" vertex="1" parent="1">
          <mxGeometry x="235" y="762" width="80" height="80" as="geometry" />
        </mxCell>
        <mxCell id="TLS6ExPTuI5c0WABD6ZB-56" style="edgeStyle=orthogonalEdgeStyle;shape=connector;curved=1;rounded=0;orthogonalLoop=1;jettySize=auto;html=1;exitX=0.5;exitY=1;exitDx=0;exitDy=0;labelBackgroundColor=default;strokeColor=default;align=center;verticalAlign=middle;fontFamily=Helvetica;fontSize=11;fontColor=default;endArrow=classic;" edge="1" parent="1" source="TLS6ExPTuI5c0WABD6ZB-58" target="TLS6ExPTuI5c0WABD6ZB-63">
          <mxGeometry relative="1" as="geometry" />
        </mxCell>
        <mxCell id="TLS6ExPTuI5c0WABD6ZB-57" style="shape=connector;rounded=0;orthogonalLoop=1;jettySize=auto;html=1;exitX=0;exitY=1;exitDx=0;exitDy=0;labelBackgroundColor=default;strokeColor=default;align=center;verticalAlign=middle;fontFamily=Helvetica;fontSize=11;fontColor=default;endArrow=classic;" edge="1" parent="1" source="TLS6ExPTuI5c0WABD6ZB-58">
          <mxGeometry relative="1" as="geometry">
            <mxPoint x="315" y="922" as="targetPoint" />
          </mxGeometry>
        </mxCell>
        <mxCell id="TLS6ExPTuI5c0WABD6ZB-58" value="01/0" style="ellipse;whiteSpace=wrap;html=1;" vertex="1" parent="1">
          <mxGeometry x="395" y="762" width="80" height="80" as="geometry" />
        </mxCell>
        <mxCell id="TLS6ExPTuI5c0WABD6ZB-59" style="edgeStyle=orthogonalEdgeStyle;shape=connector;curved=1;rounded=0;orthogonalLoop=1;jettySize=auto;html=1;exitX=0.5;exitY=0;exitDx=0;exitDy=0;entryX=0.5;entryY=1;entryDx=0;entryDy=0;labelBackgroundColor=default;strokeColor=default;align=center;verticalAlign=middle;fontFamily=Helvetica;fontSize=11;fontColor=default;endArrow=classic;" edge="1" parent="1" source="TLS6ExPTuI5c0WABD6ZB-60" target="TLS6ExPTuI5c0WABD6ZB-55">
          <mxGeometry relative="1" as="geometry" />
        </mxCell>
        <mxCell id="TLS6ExPTuI5c0WABD6ZB-60" value="11/1" style="ellipse;whiteSpace=wrap;html=1;" vertex="1" parent="1">
          <mxGeometry x="235" y="922" width="80" height="80" as="geometry" />
        </mxCell>
        <mxCell id="TLS6ExPTuI5c0WABD6ZB-61" style="edgeStyle=orthogonalEdgeStyle;shape=connector;curved=1;rounded=0;orthogonalLoop=1;jettySize=auto;html=1;exitX=0;exitY=0.5;exitDx=0;exitDy=0;entryX=1;entryY=0.5;entryDx=0;entryDy=0;labelBackgroundColor=default;strokeColor=default;align=center;verticalAlign=middle;fontFamily=Helvetica;fontSize=11;fontColor=default;endArrow=classic;" edge="1" parent="1" source="TLS6ExPTuI5c0WABD6ZB-63" target="TLS6ExPTuI5c0WABD6ZB-60">
          <mxGeometry relative="1" as="geometry" />
        </mxCell>
        <mxCell id="TLS6ExPTuI5c0WABD6ZB-62" style="edgeStyle=orthogonalEdgeStyle;shape=connector;curved=1;rounded=0;orthogonalLoop=1;jettySize=auto;html=1;exitX=0;exitY=0;exitDx=0;exitDy=0;labelBackgroundColor=default;strokeColor=default;align=center;verticalAlign=middle;fontFamily=Helvetica;fontSize=11;fontColor=default;endArrow=classic;" edge="1" parent="1" source="TLS6ExPTuI5c0WABD6ZB-63">
          <mxGeometry relative="1" as="geometry">
            <mxPoint x="315" y="932" as="targetPoint" />
          </mxGeometry>
        </mxCell>
        <mxCell id="TLS6ExPTuI5c0WABD6ZB-63" value="10/0" style="ellipse;whiteSpace=wrap;html=1;" vertex="1" parent="1">
          <mxGeometry x="395" y="922" width="80" height="80" as="geometry" />
        </mxCell>
        <mxCell id="TLS6ExPTuI5c0WABD6ZB-64" style="edgeStyle=orthogonalEdgeStyle;shape=connector;curved=1;rounded=0;orthogonalLoop=1;jettySize=auto;html=1;exitX=0;exitY=0.5;exitDx=0;exitDy=0;entryX=0.5;entryY=0;entryDx=0;entryDy=0;labelBackgroundColor=default;strokeColor=default;align=center;verticalAlign=middle;fontFamily=Helvetica;fontSize=11;fontColor=default;endArrow=classic;" edge="1" parent="1" source="TLS6ExPTuI5c0WABD6ZB-55" target="TLS6ExPTuI5c0WABD6ZB-55">
          <mxGeometry relative="1" as="geometry">
            <Array as="points">
              <mxPoint x="205" y="802" />
              <mxPoint x="205" y="742" />
              <mxPoint x="275" y="742" />
            </Array>
          </mxGeometry>
        </mxCell>
        <mxCell id="TLS6ExPTuI5c0WABD6ZB-65" style="edgeStyle=orthogonalEdgeStyle;shape=connector;curved=1;rounded=0;orthogonalLoop=1;jettySize=auto;html=1;exitX=0.5;exitY=0;exitDx=0;exitDy=0;entryX=1;entryY=0.5;entryDx=0;entryDy=0;labelBackgroundColor=default;strokeColor=default;align=center;verticalAlign=middle;fontFamily=Helvetica;fontSize=11;fontColor=default;endArrow=classic;" edge="1" parent="1" source="TLS6ExPTuI5c0WABD6ZB-58" target="TLS6ExPTuI5c0WABD6ZB-58">
          <mxGeometry relative="1" as="geometry" />
        </mxCell>
        <mxCell id="TLS6ExPTuI5c0WABD6ZB-66" style="edgeStyle=orthogonalEdgeStyle;shape=connector;curved=1;rounded=0;orthogonalLoop=1;jettySize=auto;html=1;exitX=1;exitY=0.5;exitDx=0;exitDy=0;entryX=0.5;entryY=1;entryDx=0;entryDy=0;labelBackgroundColor=default;strokeColor=default;align=center;verticalAlign=middle;fontFamily=Helvetica;fontSize=11;fontColor=default;endArrow=classic;" edge="1" parent="1" source="TLS6ExPTuI5c0WABD6ZB-63" target="TLS6ExPTuI5c0WABD6ZB-63">
          <mxGeometry relative="1" as="geometry" />
        </mxCell>
        <mxCell id="TLS6ExPTuI5c0WABD6ZB-67" style="edgeStyle=orthogonalEdgeStyle;shape=connector;curved=1;rounded=0;orthogonalLoop=1;jettySize=auto;html=1;exitX=0.5;exitY=1;exitDx=0;exitDy=0;entryX=0;entryY=0.5;entryDx=0;entryDy=0;labelBackgroundColor=default;strokeColor=default;align=center;verticalAlign=middle;fontFamily=Helvetica;fontSize=11;fontColor=default;endArrow=classic;" edge="1" parent="1" source="TLS6ExPTuI5c0WABD6ZB-60" target="TLS6ExPTuI5c0WABD6ZB-60">
          <mxGeometry relative="1" as="geometry">
            <Array as="points">
              <mxPoint x="275" y="1022" />
              <mxPoint x="205" y="1022" />
              <mxPoint x="205" y="962" />
            </Array>
          </mxGeometry>
        </mxCell>
        <mxCell id="TLS6ExPTuI5c0WABD6ZB-68" value="00" style="text;html=1;align=center;verticalAlign=middle;resizable=0;points=[];autosize=1;strokeColor=none;fillColor=none;fontSize=11;fontFamily=Helvetica;fontColor=default;" vertex="1" parent="1">
          <mxGeometry x="210" y="740" width="40" height="30" as="geometry" />
        </mxCell>
        <mxCell id="TLS6ExPTuI5c0WABD6ZB-69" value="01" style="text;html=1;align=center;verticalAlign=middle;resizable=0;points=[];autosize=1;strokeColor=none;fillColor=none;fontSize=11;fontFamily=Helvetica;fontColor=default;" vertex="1" parent="1">
          <mxGeometry x="325" y="770" width="40" height="30" as="geometry" />
        </mxCell>
        <mxCell id="TLS6ExPTuI5c0WABD6ZB-70" value="01" style="text;html=1;align=center;verticalAlign=middle;resizable=0;points=[];autosize=1;strokeColor=none;fillColor=none;fontSize=11;fontFamily=Helvetica;fontColor=default;" vertex="1" parent="1">
          <mxGeometry x="220" y="872" width="40" height="30" as="geometry" />
        </mxCell>
        <mxCell id="TLS6ExPTuI5c0WABD6ZB-71" value="01" style="text;html=1;align=center;verticalAlign=middle;resizable=0;points=[];autosize=1;strokeColor=none;fillColor=none;fontSize=11;fontFamily=Helvetica;fontColor=default;" vertex="1" parent="1">
          <mxGeometry x="450" y="872" width="40" height="30" as="geometry" />
        </mxCell>
        <mxCell id="TLS6ExPTuI5c0WABD6ZB-72" value="01" style="text;html=1;align=center;verticalAlign=middle;resizable=0;points=[];autosize=1;strokeColor=none;fillColor=none;fontSize=11;fontFamily=Helvetica;fontColor=default;" vertex="1" parent="1">
          <mxGeometry x="340" y="962" width="40" height="30" as="geometry" />
        </mxCell>
        <mxCell id="TLS6ExPTuI5c0WABD6ZB-73" value="00" style="text;html=1;align=center;verticalAlign=middle;resizable=0;points=[];autosize=1;strokeColor=none;fillColor=none;fontSize=11;fontFamily=Helvetica;fontColor=default;" vertex="1" parent="1">
          <mxGeometry x="450" y="740" width="40" height="30" as="geometry" />
        </mxCell>
        <mxCell id="TLS6ExPTuI5c0WABD6ZB-74" value="00" style="text;html=1;align=center;verticalAlign=middle;resizable=0;points=[];autosize=1;strokeColor=none;fillColor=none;fontSize=11;fontFamily=Helvetica;fontColor=default;" vertex="1" parent="1">
          <mxGeometry x="450" y="992" width="40" height="30" as="geometry" />
        </mxCell>
        <mxCell id="TLS6ExPTuI5c0WABD6ZB-75" value="00" style="text;html=1;align=center;verticalAlign=middle;resizable=0;points=[];autosize=1;strokeColor=none;fillColor=none;fontSize=11;fontFamily=Helvetica;fontColor=default;" vertex="1" parent="1">
          <mxGeometry x="210" y="992" width="40" height="30" as="geometry" />
        </mxCell>
        <mxCell id="TLS6ExPTuI5c0WABD6ZB-76" value="1x" style="text;html=1;align=center;verticalAlign=middle;resizable=0;points=[];autosize=1;strokeColor=none;fillColor=none;fontSize=11;fontFamily=Helvetica;fontColor=default;" vertex="1" parent="1">
          <mxGeometry x="310" y="832" width="40" height="30" as="geometry" />
        </mxCell>
        <mxCell id="TLS6ExPTuI5c0WABD6ZB-77" value="1x" style="text;html=1;align=center;verticalAlign=middle;resizable=0;points=[];autosize=1;strokeColor=none;fillColor=none;fontSize=11;fontFamily=Helvetica;fontColor=default;" vertex="1" parent="1">
          <mxGeometry x="360" y="862" width="40" height="30" as="geometry" />
        </mxCell>
        <mxCell id="TLS6ExPTuI5c0WABD6ZB-78" value="1x" style="text;html=1;align=center;verticalAlign=middle;resizable=0;points=[];autosize=1;strokeColor=none;fillColor=none;fontSize=11;fontFamily=Helvetica;fontColor=default;" vertex="1" parent="1">
          <mxGeometry x="340" y="912" width="40" height="30" as="geometry" />
        </mxCell>
        <mxCell id="TLS6ExPTuI5c0WABD6ZB-81" style="edgeStyle=orthogonalEdgeStyle;shape=connector;curved=1;rounded=0;orthogonalLoop=1;jettySize=auto;html=1;exitX=1;exitY=0.5;exitDx=0;exitDy=0;entryX=0.64;entryY=1.008;entryDx=0;entryDy=0;labelBackgroundColor=default;strokeColor=default;align=center;verticalAlign=middle;fontFamily=Helvetica;fontSize=11;fontColor=default;endArrow=classic;entryPerimeter=0;" edge="1" parent="1" source="TLS6ExPTuI5c0WABD6ZB-60" target="TLS6ExPTuI5c0WABD6ZB-60">
          <mxGeometry relative="1" as="geometry" />
        </mxCell>
        <mxCell id="TLS6ExPTuI5c0WABD6ZB-82" value="1x" style="text;html=1;align=center;verticalAlign=middle;resizable=0;points=[];autosize=1;strokeColor=none;fillColor=none;fontSize=11;fontFamily=Helvetica;fontColor=default;" vertex="1" parent="1">
          <mxGeometry x="295" y="1020" width="40" height="30" as="geometry" />
        </mxCell>
      </root>
    </mxGraphModel>
  </diagram>
</mxfile>
